<svg xmlns="http://www.w3.org/2000/svg" width="24" height="25" viewBox="0 0 24 25">
    <g fill="none" fill-rule="evenodd">
        <g fill="#343434" fill-rule="nonzero">
            <g>
                <path d="M18.89 1.66c.813-.99 2.268-1.108 3.252-.265l.767.657c.984.843 1.123 2.328.31 3.317l-2.568 3.126h.112v14.741l-.004.163c-.087 1.45-1.32 2.601-2.827 2.601h-15.1l-.167-.005C1.179 25.911 0 24.708 0 23.236V8.496l.005-.163C.09 6.883 1.323 5.732 2.83 5.732h12.714zm-4.858 5.914h-11.2l-.11.007c-.47.053-.834.442-.834.915v14.74l.006.108c.054.458.453.813.937.813h15.101l.11-.006c.47-.053.834-.442.834-.915l-.001-12.578-5.77 7.026c-.067.082-.14.159-.218.23l-.12.104-3.69 2.945c-1.569 1.253-3.73-.613-2.783-2.402l2.225-4.202c.073-.136.158-.265.256-.384l5.257-6.4zm-4.266 8.42l-1.842 3.48 3.055-2.44-1.213-1.04zm11.13-13.216c-.19-.112-.437-.073-.581.102l-9.504 11.57 1.481 1.267 9.503-11.569.047-.069c.107-.193.065-.444-.11-.594l-.767-.657z" transform="translate(-180.000000, -753.000000) translate(109.000000, 120.000000) translate(71.000000, 632.000000)"/>
            </g>
        </g>
    </g>
</svg>
