<svg xmlns="http://www.w3.org/2000/svg" width="19" height="24" viewBox="0 0 19 24">
    <g fill="none" fill-rule="evenodd">
        <g fill="#212121" fill-rule="nonzero">
            <path d="M9.5 0C14.742 0 19 4.186 19 9.36c0 .832-.171 1.74-.507 2.778-.334 1.031-.84 2.152-1.52 3.38-.499.9-1.085 1.848-1.755 2.843-.723 1.073-1.516 2.161-2.355 3.236l-.409.519-.371.46-.24.29-.227.255c-1.217 1.228-3.242 1.163-4.375-.154l-.646-.78-.504-.632c-.496-.63-.984-1.278-1.455-1.932-1.884-2.617-3.212-4.927-3.942-6.941C.234 11.412 0 10.333 0 9.359 0 4.186 4.258 0 9.5 0zm0 2C5.355 2 2 5.298 2 9.36c0 .71.187 1.571.574 2.64.657 1.814 1.9 3.974 3.685 6.454.455.63.926 1.256 1.4 1.859l.489.613.61.737c.37.43 1.04.451 1.398.093l.165-.188.212-.256.361-.448.392-.497c.811-1.04 1.577-2.09 2.273-3.123.64-.949 1.195-1.848 1.664-2.694.622-1.124 1.077-2.13 1.367-3.027.276-.855.41-1.563.41-2.164C17 5.3 13.645 2 9.5 2zm.121 3.577c1.996 0 3.623 1.537 3.623 3.446 0 1.91-1.627 3.447-3.623 3.447C7.626 12.47 6 10.933 6 9.023c0-1.909 1.627-3.446 3.622-3.446z" transform="translate(-1094.000000, -917.000000) translate(1094.000000, 917.000000)"/>
        </g>
    </g>
</svg>
