<svg xmlns="http://www.w3.org/2000/svg" width="24" height="24" viewBox="0 0 24 24">
    <g fill="none" fill-rule="evenodd">
        <g fill="#212121" fill-rule="nonzero">
            <g>
                <path d="M8.76 0c.663 0 1.2.537 1.2 1.2 0 .615-.463 1.123-1.06 1.192l-.14.008H6c-1.917 0-3.484 1.499-3.594 3.388L2.4 6v12c0 1.917 1.499 3.484 3.388 3.594L6 21.6h12c1.917 0 3.484-1.499 3.594-3.388L21.6 18v-2.694c0-.663.537-1.2 1.2-1.2.615 0 1.123.463 1.192 1.06l.008.14V18c0 3.227-2.547 5.858-5.74 5.994L18 24H6C2.773 24 .142 21.453.006 18.26L0 18V6C0 2.773 2.547.142 5.74.006L6 0h2.76zM22.8 0c.615 0 1.123.463 1.192 1.06L24 1.2v7.29c0 .663-.537 1.2-1.2 1.2-.615 0-1.123-.463-1.192-1.06l-.008-.14V3.856L10.989 14.469l-.105.093c-.47.373-1.157.342-1.592-.093-.469-.47-.469-1.229 0-1.698L19.662 2.4H15.51c-.615 0-1.123-.463-1.192-1.06l-.008-.14c0-.615.463-1.123 1.06-1.192L15.51 0h7.29z" transform="translate(-1303.000000, -263.000000) translate(109.000000, 120.000000) translate(1194.000000, 143.000000)"/>
            </g>
        </g>
    </g>
</svg>
