<svg xmlns="http://www.w3.org/2000/svg" width="24" height="23" viewBox="0 0 24 23">
    <g fill="none" fill-rule="evenodd">
        <g fill="#212121" fill-rule="nonzero">
            <g>
                <path d="M2.13 2.15c-3.044 3.134-2.634 8.14.018 10.397L12.3 23l1.051-1.083-10.16-10.46c-2.204-2.27-2.204-5.964 0-8.233 2.2-2.265 5.78-2.265 7.98 0L21.308 13.66c1.599 1.646 1.599 4.328 0 5.974-1.596 1.643-4.19 1.643-5.786 0l-8.763-9.021c-1.124-1.283-.863-2.827 0-3.715.862-.887 2.393-1.164 3.597.005l8.79 9.049 1.052-1.083-8.787-9.046c-2.025-1.856-4.324-1.429-5.712 0-1.4 1.44-1.818 3.791-.009 5.855l8.772 9.03c2.179 2.244 5.727 2.244 7.906 0 2.176-2.24 2.176-5.882 0-8.122L12.231 2.149c-2.784-2.866-7.317-2.865-10.1 0z" transform="translate(-1091.000000, -1091.000000) translate(1091.000000, 1091.000000)"/>
            </g>
        </g>
    </g>
</svg>
