<svg xmlns="http://www.w3.org/2000/svg" width="143" height="48" viewBox="0 0 143 48">
    <g fill="none" fill-rule="evenodd">
        <g>
            <g>
                <g>
                    <path fill="#EE6700" d="M9.723 23.163c0-5 4.071-9.055 9.089-9.055 1.842 0 3.553.547 4.982 1.484.227-.41.352-.65.352-.65S10.686 2.984 10.679 3C7.3 7.808-4.681 19.754 1.985 28.38c.49.637 1.213 1.205 2.066 1.666 1.424.65 3.553 1.085 5.486.69.94-.191 1.938-.557 2.953-1.068-1.705-1.648-2.767-3.952-2.767-6.505" transform="translate(-120.000000, -251.000000) translate(109.000000, 120.000000) translate(11.000000, 131.000000)"/>
                    <path fill="#0E6DCB" d="M38.838 15.657l3.104 2.83-2.15 4.358 3.098 2.824-4.884 9.593c-5.551 10.303-19.755 12.081-29.78 4.44C2.854 35.614 1.08 29.63 1.08 29.63c.65.502 3.335 3 7.94 2.424 4.565-.57 9.849-4.09 13.528-10.893l2.806-5.164 6.087 5.553 2.151-4.36 3.097 2.825 2.149-4.357zm-7.397 5.892l-2.149 4.357 3.103 2.832 2.15-4.357-.006-.007-3.098-2.825zm13.448-8.571l3.258 2.973-2.257 4.58-3.258-2.973 2.257-4.58zm-9.27-7.46l3.415 3.114-2.366 4.796-3.409-3.11-2.362 4.796-3.413-3.116 2.365-4.795 3.406 3.107 2.364-4.792zM94.619 39.548l.96 2.902h.017l.959-2.902h1.055l-1.495 3.943c-.333.88-.576 1.742-1.658 1.742-.249 0-.496-.037-.736-.107l.07-.764c.13.046.279.07.533.07.418 0 .675-.286.675-.709l-1.525-4.175h1.145zm45.716-.091c1.224 0 1.674.97 1.674 2.067 0 1.088-.45 2.09-1.697 2.09-.442 0-.804-.109-1.17-.547h-.014v2.075h-1.04v-5.593h.993v.56h.016c.232-.383.626-.652 1.238-.652zm-33.813 0c1.48 0 1.896 1.01 1.896 2.398h-2.755c.046.64.494 1.003 1.138 1.003.504 0 .937-.185 1.325-.401v.841c-.38.207-.813.316-1.37.316-1.319 0-2.084-.756-2.084-2.06 0-1.15.612-2.097 1.85-2.097zm27.99.091v2.122c0 .487.007 1.142.674 1.142.751 0 .912-.81.912-1.32v-1.944h1.04v3.972h-.983v-.539h-.015c-.32.387-.769.633-1.312.633-.942 0-1.354-.662-1.354-1.558v-2.508h1.038zm-66.47-1.125v1.125h.919v.757h-.92v1.851c0 .34.09.655.487.655.187 0 .365-.037.472-.107l.032.816c-.217.062-.457.094-.766.094-.814 0-1.264-.503-1.264-1.29v-2.019h-.766v-.757h.766v-.794l1.04-.33zm55.457-.379c.626 0 1.122.085 1.586.225l-.068.908c-.42-.192-.963-.285-1.396-.285-1.262 0-1.958.85-1.958 1.953 0 1.094.683 1.92 1.836 1.92.293 0 .525-.03.713-.077v-1.405h-1.147v-.846h2.182v2.898c-.573.155-1.169.279-1.748.279-1.752 0-2.966-.871-2.966-2.693 0-1.842 1.13-2.877 2.966-2.877zm-67.75.092v3.11c0 .918.295 1.52 1.124 1.52.829 0 1.122-.602 1.122-1.52v-3.11h1.085v3.44c0 1.444-.821 2.038-2.207 2.038-1.385 0-2.208-.594-2.208-2.038v-3.44h1.085zm21.756-.4v5.784h-1.008v-.446h-.014c-.31.385-.736.54-1.226.54-1.222 0-1.672-1.002-1.672-2.09 0-1.097.45-2.067 1.672-2.067.52 0 .884.176 1.194.553h.016v-2.274h1.038zm39.612 1.72c.486 0 .805.077 1.13.146l-.07.78c-.319-.109-.55-.17-.929-.17-.278 0-.612.099-.612.44 0 .631 1.805.23 1.805 1.666 0 .927-.829 1.296-1.672 1.296-.394 0-.8-.07-1.177-.17l.062-.849c.326.163.665.263 1.023.263.262 0 .68-.1.68-.487 0-.778-1.803-.247-1.803-1.68 0-.858.751-1.234 1.563-1.234zm13.568 0c1.186 0 2.09.795 2.09 2.108 0 1.14-.764 2.05-2.09 2.05-1.316 0-2.082-.91-2.082-2.05 0-1.313.906-2.107 2.082-2.107zm-59.438 0c1.48 0 1.896 1.01 1.896 2.399h-2.757c.047.64.497 1.003 1.138 1.003.506 0 .939-.185 1.327-.401v.841c-.382.207-.813.316-1.372.316-1.316 0-2.083-.756-2.083-2.06 0-1.15.612-2.097 1.851-2.097zm15.977 0c1.216 0 1.719.501 1.719 1.674v.509c0 .4.008.7.015.994.008.302.024.58.046.887h-.914c-.038-.207-.038-.469-.045-.591h-.017c-.24.438-.758.684-1.23.684-.705 0-1.394-.423-1.394-1.18 0-.594.285-.94.681-1.134.394-.192.906-.23 1.338-.23h.575c0-.642-.287-.857-.898-.857-.443 0-.883.17-1.233.433l-.029-.889c.401-.185.944-.3 1.386-.3zm-21.238.092v3.972h-1.339v-3.972h1.339zm62.167-.092c.101 0 .209 0 .317.03v1.042c-.093-.053-.28-.084-.466-.084-.797 0-.84.941-.842 1.525v1.551h-1.037v-3.972h.92v.903h.015c.047-.37.473-.995 1.093-.995zm-27.253-1.32l2.06 4.028h.015v-4.028h1.038v5.384h-1.326l-2.064-4.024h-.017v4.024H99.57v-5.384h1.331zm-38.583 1.32c.945 0 1.354.663 1.354 1.559v2.505h-1.035V41.4c0-.485-.01-1.142-.674-1.142-.752 0-.914.812-.914 1.32v1.943h-1.039v-3.972h.985v.541h.014c.326-.456.768-.633 1.309-.633zm28.894.092v3.972h-1.338v-3.972h1.338zm-9.3-1.412c1.658 0 3.12.554 3.12 2.692s-1.462 2.692-3.12 2.692h-1.48v-5.384zm11.034-.4v5.784h-1.037v-5.784h1.037zm16.746 1.812l.882 2.94h.014l.806-2.94h1.208l.867 2.94h.017l.828-2.94h.991l-1.223 3.972h-1.223l-.868-3.03h-.016l-.85 3.03h-1.187l-1.347-3.972h1.1zm-21.693 2.137h-.45c-.464 0-1.153.077-1.153.686 0 .34.287.487.658.487.316 0 .565-.14.728-.355.17-.225.217-.508.217-.818zm52.067-1.428c-.665 0-.93.711-.93 1.267 0 .562.223 1.288.916 1.288.68 0 .874-.742.874-1.288 0-.532-.186-1.267-.86-1.267zm-64.536 0c-.673 0-.86.735-.86 1.267 0 .547.195 1.288.875 1.288.692 0 .916-.726.916-1.288 0-.556-.265-1.267-.931-1.267zm55.156 0c-.672 0-.998.588-.998 1.181 0 .657.21 1.373.998 1.373.8 0 1.006-.71 1.006-1.373 0-.61-.324-1.18-1.006-1.18zM82.12 38.985h-.605v3.688h.605c.907 0 1.78-.671 1.78-1.845 0-1.171-.873-1.843-1.78-1.843zm-10.81 1.227c-.582 0-.877.401-.924.932h1.768c-.031-.5-.266-.932-.844-.932zm35.274 0c-.58 0-.875.401-.921.932h1.765c-.03-.5-.264-.932-.844-.932zm-40.598-2.376v.988h-1.339v-.988h1.339zm25.225 0v.988h-1.338v-.988h1.338zm50.493-16.585v1.306h-5.117l3.5 1.983c.3.177.41.286.31.857-.075.447-.326.588-.625.588h-3.234l3.929 1.848c.295.128.344.382.246.813-.095.422-.324.602-.648.602l-2.735-.002c.113.114.545.543 1.791 1.664.618.558 1.646.62 2.896.522l-.247 1.667c-1.642.129-2.688-.232-3.592-1.045-1.59-1.425-1.96-1.975-1.96-1.975l.97-.837h-2.609c.008.811.014 1.945.014 2.018 0 .567-.046 1.137-.474 1.55-.624.597-1.542.654-2.935.654l-.452-1.477c.824 0 1.78.043 2.018-.216.156-.167.123-.364.12-.386l.003.021c-.005-.031-.013-1.297-.016-2.168l-2.693-.002.99.798s-.458.595-2.045 2.02c-.907.813-1.95 1.174-3.596 1.045l-.246-1.667c1.25.098 2.27.03 2.894-.522 1.224-1.076 1.665-1.51 1.838-1.675l-2.934-.002c-.324 0-.467-.191-.535-.497s-.028-.775.27-.903l3.693-1.848h-2.616c-.298 0-.681-.046-.762-.497-.089-.498.042-.775.313-.903l3.435-2.028h-5.305V21.25h16.146zm-34.145-.717v1.052h3.758v1.306h-3.758v1.175h4.434v-2.84h6.308v1.2c0 .847-.223 2.09-1.318 3.128h2.344v1.41h-4.467c.576 1.193 1.607 3.337 1.73 3.562.076.108.406.743 2.003.751h1.509l-.25 1.812h-1.413c-.625 0-2.257-.145-3.002-1.459-.007-.01-.014-.022-.02-.035l-1.885-3.853v5.629h-1.54v-8.003h-1.583c-.115.463-.34.89-.652 1.256h1.56v1.302h-3.691v1.14h3.69v1.305h-3.698c-.04.51-.206 1.275-.77 1.894-.593.653-1.457.983-2.565.983h-2.31l-.303-1.562h2.415c.715 0 1.247-.182 1.577-.546.214-.233.33-.515.39-.769h-3.826v-1.306h3.883v-1.139h-3.883v-1.302h1.567c-.312-.366-.54-.793-.652-1.256h-2.71v-1.302h5.586v-1.175h-3.791v-1.306h3.79v-1.052h1.543zm-46.724.25v9.564c-.006.288-.077 1.282-.855 2.09-.572.59-1.368.891-2.365.891h-2.774l-.386-1.427h3.16c.622 0 1.098-.164 1.412-.484.328-.334.434-.615.47-.88H55.57c-.861 0-.919-.851-.92-1.04v-8.715h6.186zm1.91 8.8l1.205.802-1.77 2.892-1.206-.798 1.771-2.895zm4.96 0l1.204.802-1.768 2.892-1.205-.798 1.768-2.895zm-2.48 0l1.206.802-1.77 2.892-1.205-.798 1.768-2.895zm4.902.017c.535 1.094 1.694 2.059 2.382 2.448-.004.002-1.259 1.146-1.259 1.146-.963-.515-1.883-1.907-2.333-2.794zm23.35-1.811v2.439c0 .188-.026 1.138-.764 1.907-.585.606-1.424.915-2.498.915h-7.479c-1.072 0-1.911-.309-2.494-.915-.74-.773-.768-1.723-.768-1.907v-2.44h14.003zm-1.87 1.448H81.342v.914c.003.073.034.5.346.815.284.288.748.432 1.377.432h6.822c.631 0 1.094-.144 1.377-.432.342-.343.345-.82.345-.825l-.002-.013v-.891zM59.383 27.73H56.1v1.478h3.283V27.73zm5.54-6.972l1.656 2.828 1.654-2.828h1.638l2.025 3.46c.119.203.123.46.005.667-.118.207-.337.334-.574.334h-1.17l1.74 2.971c.118.206.122.462.004.67-.118.205-.337.335-.574.335H61.83c-.238 0-.457-.13-.574-.336-.117-.207-.117-.463.005-.669L63 25.22h-1.17c-.237 0-.456-.127-.573-.334-.117-.208-.117-.464.005-.668l2.024-3.459h1.638zm-.817 5.2l-1.253 2.094h2.493l-1.24-2.095zm4.938 0l-1.252 2.094h2.492l-1.24-2.095zm65.183.027s-.452-.304-1.013 0l-3.707 2h8.181zm-66.28-.766h-2.74l1.372 2.339 1.367-2.34zm19.844-4.41c.196 0 .387.075.529.213.02.018 5.457 4.45 6.493 4.45h1.715l-.202 1.818h-2.18c-.308 0-.488-.016-.762-.2-.343-.281-.727-.594-1.128-.919H80.699c-.404.325-.786.638-1.128.918-.32.211-.505.201-.906.201h-2.04l-.202-1.819h1.716c1.036 0 6.474-4.431 6.493-4.45.142-.137.333-.211.53-.211zm21.171 4.56h-4.376c.274.832 1.15 1.441 2.189 1.441 1.04 0 1.914-.609 2.187-1.44zm-49.579-.406H56.1V26.4h3.283v-1.437zm57.253-2.358h-3.104v2.95h.159c2.325-.207 2.888-1.813 2.945-2.95zm17.526-.048s-.486-.282-.955 0c-.468.284-3.28 2.166-3.28 2.166h7.895zm-46.674-.197h-2.023s-1.319 1.044-2.837 2.26h7.695c-1.518-1.216-2.835-2.26-2.835-2.26zm-18.444-.385l-1.252 2.096h2.492l-1.24-2.096zm-4.938 0l-1.253 2.096h2.493l-1.24-2.096zm-4.723.139H56.1v1.52h3.283v-1.52z" transform="translate(-120.000000, -251.000000) translate(109.000000, 120.000000) translate(11.000000, 131.000000)"/>
                </g>
            </g>
        </g>
    </g>
</svg>
