<svg xmlns="http://www.w3.org/2000/svg" width="24" height="17" viewBox="0 0 24 17">
    <g fill="none" fill-rule="evenodd">
        <g fill="#343434" fill-rule="nonzero">
            <g>
                <path d="M21.429 0C22.849 0 24 1.142 24 2.55v11.9c0 .947-.52 1.774-1.294 2.214l-.117.135-.054-.046c-.335.158-.71.247-1.106.247H2.57c-.396 0-.77-.089-1.106-.247l-.054.046-.117-.135C.521 16.224 0 15.397 0 14.45V2.55C0 1.142 1.151 0 2.571 0zm-7.403 9.613l-.919.771c-.639.537-1.575.537-2.214 0l-.92-.771L3.195 15.3h17.609l-6.778-5.687zM1.714 2.55v11.767L8.647 8.5 2.09 2.998c-.128-.107-.236-.229-.323-.36l-.053-.088zm20.572-.001l-.047.08c-.09.137-.2.261-.329.369L15.352 8.5l6.933 5.817V2.549zM20.8 1.7H3.198L12 9.087 20.801 1.7z" transform="translate(-396.000000, -757.000000) translate(109.000000, 120.000000) translate(287.000000, 637.000000)"/>
            </g>
        </g>
    </g>
</svg>
