<svg xmlns="http://www.w3.org/2000/svg" width="21" height="26" viewBox="0 0 21 26">
    <g fill="none" fill-rule="evenodd">
        <g fill="#212121" fill-rule="nonzero">
            <path d="M10.5 1c5.245 0 9.5 4.08 9.5 9.12 0 .803-.18 1.694-.513 2.695-.356 1.074-.902 2.24-1.613 3.495-.551.97-1.194 1.982-1.91 3.02-.825 1.196-1.706 2.367-2.586 3.469-.155.193-.303.377-.446.551l-.408.493-.243.289-.21.232c-.897.883-2.404.847-3.248-.111l-.096-.11-.6-.71-.558-.684c-.526-.652-1.064-1.347-1.598-2.071-1.947-2.64-3.452-5.122-4.263-7.306C1.251 12.14 1 11.067 1 10.119 1 5.081 5.255 1 10.5 1zm.136 5.539c-1.93 0-3.49 1.44-3.49 3.214 0 1.773 1.56 3.214 3.49 3.214 1.93 0 3.49-1.441 3.49-3.214s-1.56-3.214-3.49-3.214z" transform="translate(-892.000000, -915.000000) translate(892.000000, 915.000000)"/>
        </g>
    </g>
</svg>
