<svg xmlns="http://www.w3.org/2000/svg" width="24" height="20" viewBox="0 0 24 20">
    <g fill="none" fill-rule="evenodd">
        <g fill="#212121" fill-rule="nonzero">
            <g>
                <path d="M8.386.438c.341-.289.857-.29 1.202.012l.08.08c.296.334.298.839-.012 1.176L2.838 9.11h20.521l.106.006c.452.051.803.427.803.883 0 .49-.407.889-.909.889l-20.522-.001 6.819 7.406.07.088c.259.362.206.864-.138 1.168-.373.328-.948.298-1.284-.066l-7.953-8.64c-.362-.117-.624-.45-.624-.844 0-.393.262-.727.624-.844L8.304.516z" transform="translate(-1091.000000, -265.000000) translate(109.000000, 120.000000) translate(982.000000, 145.000000) translate(11.997865, 10.000008) scale(-1, 1) translate(-11.997865, -10.000008)"/>
            </g>
        </g>
    </g>
</svg>
