<svg xmlns="http://www.w3.org/2000/svg" width="18" height="9" viewBox="0 0 18 9">
    <g fill="none" fill-rule="evenodd">
        <g fill="#616161" fill-rule="nonzero">
            <path d="M8.342.247c.345-.302.847-.327 1.219-.075l.098.075 8 7c.415.364.457.996.094 1.412-.336.383-.9.449-1.312.17l-.1-.076L9 2.328 1.659 8.753c-.384.335-.952.325-1.323-.005l-.089-.09c-.335-.383-.325-.951.005-1.322l.09-.089 8-7z" transform="translate(-184.000000, -1254.000000) translate(184.000000, 1254.000000) translate(9.000014, 4.500007) scale(1, -1) translate(-9.000014, -4.500007)"/>
        </g>
    </g>
</svg>
