<svg xmlns="http://www.w3.org/2000/svg" width="20" height="24" viewBox="0 0 20 24">
    <g fill="none" fill-rule="evenodd">
        <g fill="#FFF" fill-rule="nonzero">
            <g>
                <g>
                    <g>
                        <g>
                            <path d="M6.386 2.438c.341-.289.857-.29 1.202.012l.08.08c.296.334.298.839-.012 1.176L.838 11.11h20.521l.106.006c.452.051.803.427.803.883 0 .49-.407.889-.909.889L.837 12.888l6.819 7.406.07.088c.259.362.206.864-.138 1.168-.373.328-.948.298-1.284-.066l-7.953-8.64c-.362-.117-.624-.45-.624-.844 0-.393.262-.727.624-.844l7.953-8.64z" transform="translate(-256.000000, -512.000000) translate(246.000000, 504.000000) translate(10.000000, 8.000000) translate(9.997865, 12.000008) scale(-1, 1) rotate(90.000000) translate(-9.997865, -12.000008)"/>
                        </g>
                    </g>
                </g>
            </g>
        </g>
    </g>
</svg>
