<svg xmlns="http://www.w3.org/2000/svg" width="24" height="12" viewBox="0 0 24 12">
    <g fill="none" fill-rule="evenodd">
        <g fill="#212121" fill-rule="nonzero">
            <g>
                <path d="M11.122.33c.46-.403 1.13-.437 1.625-.1l.131.1 10.667 9.333c.554.485.61 1.327.125 1.882-.447.511-1.2.598-1.749.227l-.132-.102L12 3.104 2.211 11.67c-.511.448-1.268.434-1.763-.006l-.118-.12c-.448-.51-.434-1.268.006-1.763l.12-.118L11.121.33z" transform="translate(-180.000000, -433.000000) translate(109.000000, 120.000000) translate(71.000000, 313.000000) translate(12.000018, 6.000009) scale(1, -1) translate(-12.000018, -6.000009)"/>
            </g>
        </g>
    </g>
</svg>
