<svg xmlns="http://www.w3.org/2000/svg" width="105" height="18" viewBox="0 0 105 18">
    <g fill="none" fill-rule="evenodd">
        <g fill="#CA2429">
            <g>
                <path d="M27.552.002c1.18-.091 2.247 2.838 2.794 3.6.4.54 1.521 1.033 1.222 2.154-.208.78-2.241-.084-2.088 1.08.095.673 2.873 3.574 1.43 3.81-.549.095-.833-.21-1.22-.258-.73-.1-1.349-.316-1.647-.03-.159.139-.126.532-.155.924-.132 1.939 5.04.4 4.374 1.572-.098.174-.668.495-.844.627-.887.68-1.195 1.896-2.085 2.566-.392.285-.612.41-1.275.489-.195.019-.476.148-.76.089-1.328-.252-.7-3.423-.356-4.225.265-.605.975-2.027-.254-2.15-.128-.015-1.399.014-.86 0-.488 0-2.109-.153-2.29.138-.247.359.101.94.154 1.208.16.903.818 3.93-.053 4.496-.583.37-1.339.051-1.528-.363-.084-.19-.086-1.839.257-3.14.088-.339 1.478-1.672.405-1.89-.739-.149-1.565-.19-2.09-.056-.716.194-1.008.677-1.063 1.448-.054.811.266 1.654.104 2.467-.162.815-1.292 1.434-1.832.497-.413-.716.079-1.526.356-2.024.229-.408 1.395-1.824.813-2.067-.497-.206-1.24-.136-1.88-.177-.441-.025-1.926-.1-2.085.401-.136.448-.081.897-.156 1.303l-.046.315c.076.882.426 2.104-.152 2.648-.791.745-2.235-.97-1.676-2.059l.253-.364c.486-.481 2.62-1.668.255-1.933-.327-.033-.895-.033-1.067.09l-.105.14c-.096.294.045.676 0 .984-.113.754-.653 1.654-1.066 2.246-.371.537-1.143 1.285-1.776 1.578-1.052.482-2.305.527-3.564.85-1.361.342-2.48.739-4.218.898-.209.019-.566.178-.865.09-.543-.16-.208-1.874 0-2.153.186-.252.563-.567.865-.722l.105-.044c.934-.568 3.052-.47 4.37-.676.684-.102 1.384-.047 1.931-.265.285-.118.618-.33.811-.543 1.544-1.734-6.64-.063-7.217 0-.241.032-.6.02-.76-.042l-.258-.18c-.504-.572-.903-1.565-.71-2.702.107-.636.442-1.063.507-1.838.075-.933.324-2.036.203-2.965-.07-.566-.352-2.537-.048-2.96.135-.193.383-.411.556-.586.487-.47 1.002-.56 1.988-.498 1 .072 2.147.093 3.098.18.717.064 1.366-.13 1.984-.09.323.02.674.162 1.118.141.914-.068 2.064-.376 2.797.038.512.298.507.948.507 1.71l-.051.088.105.22c.296.078.868 0 1.212-.129.293-.103.445-.34.665-.498 1.069-.755 1.975-2.134 3.153-2.69.201-.097.568-.19.913-.13 1.47.237 2.325 4.19 3.201 4.355h.41c.361-.086 1.265-1.724 1.578-2.067.23-.254.59-.423.807-.682.667-.757 1.182-1.46 2.139-1.97.172-.096.45-.252.66-.274zM81.766.32c1.08-.073 1.688.163 1.402 1.145-.058.207-.564 1.123.203 1.4 1.036.37 2.197-.63 3.29-.354.344.08.438.698.262.986-.496.82-1.54.879-2.97.975-.248.013-.443-.019-.621.044-.32.12-.3.667-.404.96-.018 0 .054.474.365.532.615.105 1.447-.077 1.95-.136l.258-.052c.804-.081 1.706-.127 2.31.07.593.193.935.495.88-.307-.031-.457-.154-1.028-.071-1.436.044-.238.426-.366.611-.5.175-.135.309-.446.56-.503 1.117-.257 3.413.58 4.421.665 1.08.089 2.188-.09 3.08-.183.83-.099 2.408-.225 2.365.47-.027.442-.584 1.188-.968 1.372-.424.198-.972.186-1.484.304-.672.147-1.401.511-1.948.796-.438.242-.647.337-.92.711-.871 1.19 1.391.711 2.218.475.448-.13.798-.467 1.33-.63 1.28-.386 2.746 1.596 1.706 2.095-.334.157-.93.097-1.388.135-.605.055-1.16.225-1.737.346-.952.201-3.016-.361-3.444.4l.006.416c.082.09.825.676 1.237.856 1.675.73 3.582 1.498 5.762 1.86.925.151 2.102.043 3.18-.07.42-.041.98-.295 1.545-.175.531.114.07.595-.105.743-.25.228-.547.412-.81.63-.754.605-2.377 1.985-3.37 2.317-.427.135-1.19.47-1.835.233-.596-.216-2.144-1.29-2.489-1.42-.805-.317-2.54-1.495-3.09-2.04-.45-.441-.986-1.167-1.653-1.4-.29-.092-.346-.182-.7-.037-.62.252-.402 4.134-.236 4.737.313 1.127-1.351 1.16-1.941.548-1.267-1.288.137-5.526.366-7.211.064-.5.134-2.704-.352-2.8-.392-.082-.896.174-1.232.22-.593.066-1.132-.108-1.745.01-.436.085-.623.57-.655.87.776.433 1.537.1 2.107.81.162.196.172.387.054.62-.547 1.104-3.476-.022-4.462.411-.398.166-.271.959-.37 1.364.892.56 5.34-.734 4.652.833l-.306.283c-.81.85-2.218.354-3.8.364-.239.004-.323-.074-.55-.015-.028.012-.028.7-.058 1.008-.041.528-.222 1.083-.551 1.409-1.044 1.015-3.363.895-5.127 1.368-.964.264-2.228 1.064-3.742.61-.406-.117-.832-.56-1.036-.857-1.697-2.522 7.552-1.197 8.294-2.788.067-.139.172-.431.047-.612-.214-.311-2.313-.045-2.666.007-1.136.152-3.33.71-4.62.411-.347-.085-.574-.361-.77-.575-.292-.307-.278-.42.044-.7.823-.748 1.386-.38 2.871-.48.93-.06 4.783.085 5.133-.286.181-.2.23-.535.148-.83-.051-.191-.128-.352-.31-.413-.336-.105-.924-.03-1.336-.027-1.082.004-2.002.004-3.08.101-.64.062-1.354.28-1.996.31-.394.012-.811-.078-.877-.323l.048-.247c.075-.475.214-.708.561-.956.814-.602 2.358-.055 3.482-.234.248-.042.78-.133.877-.295.165-.295-.044-.855-.367-.909-1.68-.291-3.5.21-4.874.412-.352.046-.733.326-1.128.303-.42-.031-.58-.436-.414-.746.213-.409.579-1.061.967-1.372.241-.194.706-.427 1.121-.46.74-.07 1.34.297 2.005.356 1.355.111 3.98.204 5.289-.044.442-.09.4-.486.453-.87.149-1.034-2.665-.67-3.699-.511-.606.096-1.06.192-1.335-.234-.255-.397.099-.728.348-.952.252-.23.546-.876.924-.965 1.317-.295 3.264.758 3.751-.074-.167.295 0-1.443.155-1.647.316-.425.197-.572 1.004-.625zM52.07 1.54l.48.037.292.174c.42.441.36 1.397.672 1.92.181.297.543.503.77.766 1 1.137 2.052 2.266 3.52 2.978 1.571.753 3.577 1.528 6.12 1.36.795-.05 3.8-.586 3.959-.512.767.344-.474 2.338-.674 2.519-.355.3-.706.861-1.11 1.098-.535.324-1.889.54-2.652.554-.604.018-1.02-.368-1.496-.038l-.043.038c-.697 1.011.771 3.479-.728 3.92-.968.288-2.336-.087-3.087-.212-1.411-.229-2.626-.286-4.07-.434-.898-.09-5.396-.015-6.731.14-1.484.163-2.934.688-4.367.288l-.465-.095c-.628-.302-.523-1.724-.28-2.326.115-.278.523-1.453.048-1.66-.43-.187-1.023.062-1.35.128-1.444.264-4.058 1.073-5.016-.172-.191-.251-.171-.619-.24-.977-.105-.534-.345-1.144-.24-1.836.085-.576.336-1.356.82-1.613.265-.145.699-.186.96 0 .192.13.26.37.44.511.362.281 1.711.928 2.215 1.017.64.112 1.348-.074 1.833-.12 1.704-.175 2.83-.423 3.858-1.15 1.67-1.186 3.416-2.462 4.724-3.966.557-.63.89-1.86 1.69-2.255l.148-.082zm5.881 11.323c-1.296-.775-3.95-.488-5.831-.53-.943-.022-2.108.034-3.142.101-.816.059-2.572.044-3.039.387-.292.22-.538 1.107-.041 1.274.543.194 1.563.134 2.154.046 1.27-.196 2.763-.284 4.068-.242 1.394.053 2.037-.13 3.218 0 .566.067 1.81.31 2.566.029l.289-.343c.103-.31-.014-.585-.242-.722zM9.357 10.112c-.323-.396-2.389-.56-3.209-.495-.793.067-2.117.053-2.741.363-.31.149-.486 1.134-.057 1.26.493.131 1.028-.188 1.377-.226 1.094-.134 3.912.23 4.574-.137.285-.16.218-.556.056-.765zM55.455 8.73l-.058.002c-.274.045-.541.489-.821.597-.015.003-3.404.322-3.666.296-.963-.09-2.113.237-2.987.09-.227-.035-.48-.486-.774-.471l-.628.25c-.367.216-1.553.846-.77 1.287h.095c1.013.3 3.29-.014 4.437-.092 1.946-.127 3.81.035 5.643-.085.846-.057 2.46.354 2.334-.117-.106-.423-2.48-1.83-2.863-1.755zM21.992 6.196l-.238.007c-.644.044-2.047.044-2.134.583-.068.457.603.76.763 1.083.218.44.261.89.56 1.26.122.148.272.207.51.264l.146.046c.523-.058.835-.94 1.123-1.259.294-.319 1.5-.892 1.532-1.246.036-.35-.279-.343-.716-.46-.505-.131-1.049-.318-1.784-.271zm-4.76 3.021c2.367-.266 1.525-2.004-.101-1.845-.627.06-1.527 1.141-1.275 1.66.127.263.575.272 1.376.185zm-3.61-1.802c-.238-.027-.695-.186-1.014-.087-.377.107-.701 2.15.458 1.8.598-.188 1.175-.85 1.412-1.408l.01-.028c-.257-.183-.431-.227-.866-.277zM93.44 5.384l-.142.006c-.426.025-1.86.077-2.205.229-.077.03-.42 2.76-.355 2.976.059.21.054.195.43.153.358-.04 1.658-.285 1.845-.51.172-.206 0-.463.097-.737.232-.686.852-1.178 1.014-1.918-.223-.135-.366-.225-.826-.193zM26.253 6.785h-.071c-.233.029-1.21 1.125-.978 1.674.115.28.618.308 1.536.219.497-.05.832-.162.892-.38.16-.578-1.013-1.566-1.45-1.512zm57.26 1.245c.67-.659-.03-.688-.824-.659-.542.026-1.157-.004-1.696.023-.599.02-1.506.122-1.845.385-.171.122-.57.67-.197.82.42.187 3.239.035 3.696-.068.304-.068.679-.325.866-.5zM6.775 7.235H6.66c-.691.028-1.627.156-2.232.274-.532.097-.806.16-.97.586-.115.285-.071.318.1.537 1.198-.16 2.74-.222 4.07-.133.41.02 1.03.097 1.52 0 .324-.072.543-.512.309-.807-.227-.294-2.168-.47-2.797-.456zm46.839.18c-.54-.449-1.266-1.632-2.463-1.408-.422.081-.93.637-1.204.898-.253.226-.591.385-.82.633l.142.304c.798.373 3.39-.07 4.245-.172zM9.656 4.772c-.254-.116-4.94-.438-5.229-.364-.342.085-.454.445-.516.809-.042.278-.042.723.256.81.676.187 1.504-.132 2.033-.183 1.023-.095 2.318.328 3.256.047l.305-.356c.103-.233.18-.652-.105-.763zm8.076-1.128l-.093.003c-.33.036-.774.344-.967.54-.196.193-.428.37-.606.585-.16.179-.506.604-.104.763.575.214 2.92-.262 3-.584.119-.478-.785-1.371-1.323-1.304zm10.43.492c.165-.638-.9-1.547-1.776-1.394-.372.071-1.642 1.43-1.17 1.938.19.199.757.274 1.574.092.34-.081 1.291-.33 1.372-.636z" transform="translate(-139.000000, -579.000000) translate(109.000000, 120.000000) translate(30.000000, 459.000000)"/>
            </g>
        </g>
    </g>
</svg>
