<svg xmlns="http://www.w3.org/2000/svg" width="60" height="60" viewBox="0 0 60 60">
    <g fill="none" fill-rule="evenodd">
        <g>
            <g>
                <g transform="translate(-1285.000000, -735.000000) translate(109.000000, 120.000000) translate(1176.000000, 615.000000)">
                    <path stroke="#EE6700" stroke-linecap="round" stroke-linejoin="round" stroke-width="1.818" d="M26.422.91v22.456c-.12 1.345-.746 2.018-1.878 2.018s-1.79-.673-1.97-2.018"/>
                    <path fill="#C2C0C0" d="M10.098 14.591c.113-.57.675-3.16 2.251-5.47 1.482-2.172 3.938-4.062 5.36-4.877 2.656-1.523 5.351-2.256 8.433-2.358 6.589-.218 11.02 3.531 13.096 5.776.393.424 1.61 1.979 2.502 3.748.512 1.016.832 2.138 1.043 3.067.336 1.48-.188 1.85-.578 1.85-.633 0-2.238-1.675-5.561-1.314-2.578.281-3.883 1.591-3.982 1.672-.127.103-.264.207-.358.258-.24.127-.777.149-1.262-.371-.654-.703-2.422-1.559-4.697-1.559-.394 0-1.798-.014-3.317.668-.334.15-.851.489-1.551 1.016-.47.38-1.03.284-1.676-.289-.479-.423-2.05-1.378-3.993-1.52-1.504-.109-3.237.43-3.823.736-.628.33-1.035.655-1.585.483-.073-.022-.316-.167-.37-.426-.083-.389.03-.896.068-1.09z"/>
                    <rect width="7.847" height="7.847" x="33.542" y="16.597" fill="#EE6700" rx="3.924"/>
                    <path fill="#EE6700" d="M36.901 25.42c.534-.027.888-.027 1.062 0 .262.04.42.091.514.247.095.155.113.436 0 .576-.076.093-.286.401-.632.924l.863 3.74c-.51.268-.928.42-1.256.455-.153.017-.361-.012-.585-.16-.14-.092-.396-.232-.768-.419l.802-3.616-.63-.924c-.093-.206-.107-.375-.041-.506.099-.196.171-.229.307-.273.09-.03.212-.044.364-.044z"/>
                    <path fill="#C2C0C0" stroke="#C2C0C0" stroke-width=".909" d="M24.498 23.793c.324.196 1.541 1.89 3.652 5.084.659-.56 1.147-1 1.466-1.32.08-.082.914-.758 1.512-1.048.307-.149.757-.271 1.349-.367l1.688-.369c1.442 2.859 2.252 4.426 2.428 4.703.264.416.782.537 1.14.416.358-.121.583-.441.605-.49.16-.359.9-1.863 2.217-4.514.487.132 1.076.34 1.768.621 1.038.423 3.346 2.167 4.385 2.9.692.49 1.533 1.213 2.523 2.172.616.742.616 1.493 0 2.251-.616.759-2.594 2.725-5.935 5.9l-.973 17.556c-.34.785-.863 1.177-1.568 1.177-1.059 0-1.705-.51-1.705-1.177 0-.44-1.135-15.594-1.21-15.866-.075-.271-.26-.376-.456-.376-.195 0-.404.102-.453.376-.032.184-.379 5.472-1.039 15.866-.24.61-.655 1.003-1.248 1.177-.89.263-2.308-.186-2.308-1.676 0-.993-.254-6.804-.762-17.432v-9.022c-1.342 1.358-2.106 2.074-2.292 2.15-.448.18-.825.253-1.132.217-1.254-.145-2.286-1.462-2.974-2.576-.048-.078-.159-.252-.334-.524l-2.226-3.323c-.244-.39-.366-.756-.366-1.1 0-.517.235-.926.366-1.064s.383-.35.669-.428c.488-.134 1.012-.016 1.213.106zm18.796 7.101v4.296l2.425-2.422-2.425-1.874z"/>
                    <path stroke="#EE6700" stroke-linecap="round" stroke-linejoin="round" stroke-width="4.547" d="M20.581 37.137c-1.966-2.078-4.177-2.781-6.633-2.11-3.684 1.007-4.176 4.893-2.623 6.956.785 1.042 2.389 2.12 5.162 3.45.45.217 2.833 1.153 3.89 2.85.68 1.095.68 2.48.204 3.536-.476 1.055-1.905 2.538-5.294 2.538-2.815 0-4.729-.792-5.742-2.376"/>
                    <path fill="#EE6700" d="M13.67 30.455H17.045V34.705H13.67zM13.67 54.954H17.045V58.579H13.67z"/>
                </g>
            </g>
        </g>
    </g>
</svg>
