<svg xmlns="http://www.w3.org/2000/svg" width="60" height="60" viewBox="0 0 60 60">
    <g fill="none" fill-rule="evenodd">
        <g>
            <g>
                <g>
                    <path fill="#C2C0C0" d="M20.533 19.233c-6.324 6.87-10.258 12.33-11.8 16.38C6.42 41.69 6.085 48.06 9.823 51.77c3.738 3.71 7.718 4.039 7.718 4.039h25.106c8.317-1.42 11.892-5.943 10.724-13.567-1.168-7.624-5.51-15.294-13.03-23.01H20.534zM20.877 14.836L19.05 9.433c-.064-.206-.097-.477-.097-.814 0-1.208.925-1.777 1.924-1.777h5.407C27.32 5.614 28.657 5 30.294 5c1.636 0 3.007.614 4.112 1.842h5.75c1.559.15 2.174 1.014 1.846 2.59-.328 1.577-.943 3.378-1.845 5.404h-19.28z" transform="translate(-635.000000, -735.000000) translate(109.000000, 120.000000) translate(526.000000, 615.000000)"/>
                    <path stroke="#EE6700" stroke-linecap="round" stroke-linejoin="round" stroke-width="4.744" d="M40.406 17.199L18.415 17.199 13.777 21.266 18.415 17.199 13.777 13.133" transform="translate(-635.000000, -735.000000) translate(109.000000, 120.000000) translate(526.000000, 615.000000)"/>
                    <path stroke="#EE6700" stroke-linecap="round" stroke-linejoin="round" stroke-width="3.795" d="M35.625 31.33c-2.46-1.56-4.551-2-6.272-1.319-2.58 1.024-3.124 2.796-2.727 4.882.22 1.156 1.546 2.443 5.034 4.115.39.188 2.458 1 3.374 2.473.591.95.591 2.15.178 3.066-.413.916-1.653 2.202-4.594 2.202-2.442 0-4.102-.687-4.98-2.061" transform="translate(-635.000000, -735.000000) translate(109.000000, 120.000000) translate(526.000000, 615.000000)"/>
                    <path fill="#EE6700" d="M29.216 26.014H32.144V29.701H29.216zM29.216 47.267H32.144V50.412000000000006H29.216z" transform="translate(-635.000000, -735.000000) translate(109.000000, 120.000000) translate(526.000000, 615.000000)"/>
                </g>
            </g>
        </g>
    </g>
</svg>
