<svg xmlns="http://www.w3.org/2000/svg" width="60" height="60" viewBox="0 0 60 60">
    <g fill="none" fill-rule="evenodd">
        <g>
            <g>
                <g transform="translate(-872.000000, -735.000000) translate(109.000000, 120.000000) translate(763.000000, 615.000000)">
                    <rect width="51.416" height="41.528" x="1.818" y="8.251" fill="#C2C0C0" rx="4.614"/>
                    <path fill="#EE6700" d="M1.818 8.251L53.234 8.251 53.234 19.457 1.818 19.457z"/>
                    <rect width="5.273" height="9.888" x="14.343" y="3.636" fill="#C2C0C0" rx="2.637"/>
                    <rect width="5.273" height="9.888" x="35.436" y="3.636" fill="#C2C0C0" rx="2.637"/>
                    <rect width="7.91" height="7.91" x="10.387" y="36.595" fill="#F2F2F2" rx="1.318"/>
                    <rect width="7.91" height="7.91" x="10.387" y="24.73" fill="#F2F2F2" rx="1.318"/>
                    <rect width="7.91" height="7.91" x="23.571" y="24.73" fill="#F2F2F2" rx="1.318"/>
                    <rect width="7.91" height="7.91" x="36.755" y="24.73" fill="#F2F2F2" rx="1.318"/>
                    <rect width="21.094" height="21.094" x="36.755" y="34.618" fill="#EE6700" rx="10.547"/>
                    <rect width="1.356" height="6.78" x="46.656" y="39.138" fill="#F2F2F2" stroke="#F2F2F2" stroke-linejoin="round" stroke-width=".753" rx=".678"/>
                    <path fill="#F2F2F2" stroke="#F2F2F2" stroke-linejoin="round" stroke-width=".753" d="M46.97 44.877c-.264.265-.264.694 0 .959l3.836 3.835c.265.265.694.265.959 0s.265-.694 0-.959l-3.836-3.835c-.264-.265-.694-.265-.959 0z"/>
                </g>
            </g>
        </g>
    </g>
</svg>
