<svg xmlns="http://www.w3.org/2000/svg" width="60" height="60" viewBox="0 0 60 60">
    <g fill="none" fill-rule="evenodd">
        <g>
            <g>
                <g transform="translate(-1073.000000, -735.000000) translate(109.000000, 120.000000) translate(964.000000, 615.000000)">
                    <path stroke="#C2C0C0" stroke-linecap="round" stroke-linejoin="round" stroke-width="2.883" d="M55.709 52.453H42.566l-5.395 2.575-13.023.473c-.754-.044-1.273-.079-1.558-.104-2.108-.191-3.714-.583-4.844-.973-.437-.15-4.37-1.995-11.8-5.532-.366-.514-.583-.863-.65-1.046-.723-1.959.061-3.012 1.804-3.516 1.988-.574 6.436.598 13.347 3.516h8.673l9.352-3.704-9.352 3.704c-2.355.019-3.729-.756-4.123-2.325-.394-1.568.461-2.881 2.565-3.939l11.212-4.395c.875-.397 1.621-.582 2.24-.553.617.029 1.308.28 2.071.755l5.949 3.54h7.241"/>
                    <path fill="#C2C0C0" stroke="#C2C0C0" stroke-linejoin="round" stroke-width=".866" d="M46.296 28.942l-3.804 1.539v-4.078c0-.718-.581-1.299-1.298-1.299-.673 0-1.226.511-1.292 1.166l-.007.133v5.129L27.9 36.384v-9.981c0-.718-.581-1.299-1.298-1.299-.673 0-1.226.511-1.292 1.166l-.007.133v11.032l-4.311 1.744V22.486c0-2.778 1.9-5.117 4.485-5.814.272-.073 1.08-.15 1.734 0 .579.133 1.008.474 1.262.71.818.765 2.103 1.727 5.17 1.727 3.252 0 4.46-1.08 5.27-1.861.194-.187.588-.554 1.036-.677.571-.156 1.21-.04 1.422 0 2.806.539 4.924 2.982 4.924 5.915v6.456z"/>
                    <circle cx="33.644" cy="9.566" r="6.566" fill="#EE6700"/>
                    <circle cx="12.823" cy="29.407" r="10.823" fill="#EE6700"/>
                    <path stroke="#FFF" stroke-linecap="round" stroke-linejoin="round" stroke-width="2.152" d="M15.456 25.496c-1.395-.886-2.581-1.135-3.557-.748-1.463.58-1.771 1.585-1.546 2.768.124.655.876 1.385 2.854 2.334.222.106 1.394.567 1.914 1.402.335.539.335 1.22.1 1.74-.234.519-.937 1.248-2.604 1.248-1.385 0-2.327-.39-2.825-1.169"/>
                    <path fill="#FFF" d="M11.822 22.481H13.482V24.572000000000003H11.822zM11.822 34.534H13.482V36.317H11.822z"/>
                </g>
            </g>
        </g>
    </g>
</svg>
